<svg width="12" height="12" viewBox="0 0 12 12" fill="none" xmlns="http://www.w3.org/2000/svg">
<path d="M5.04953 0C2.26074 0 0 2.26095 0 5.04958C0 7.83821 2.26074 10.0992 5.04953 10.0992C6.20884 10.0992 7.30768 9.70087 8.15998 9.04443L10.9077 11.8154C11.1543 12.0615 11.5686 12.0615 11.8151 11.8154C12.0616 11.5686 12.0616 11.1545 11.8151 10.9077L9.04831 8.15569C9.70525 7.30358 10.0991 6.20909 10.0991 5.04958C10.0991 2.26095 7.83832 0 5.04953 0ZM5.04953 1.26239C7.14111 1.26239 8.83667 2.95779 8.83667 5.04958C8.83667 7.14136 7.14111 8.83676 5.04953 8.83676C2.95795 8.83676 1.26238 7.14136 1.26238 5.04958C1.26238 2.95779 2.95795 1.26239 5.04953 1.26239Z" fill="#D9D9D9"/>
</svg>
