<svg width="60" height="64" viewBox="0 0 60 64" fill="none" xmlns="http://www.w3.org/2000/svg">
<rect x="0.662354" y="0.5" width="58.8376" height="62.52" rx="10.5" fill="white" stroke="#459B8E"/>
<path d="M19 29.2609L41.3043 21.6721L19 14V29.2609Z" fill="#459B8E"/>
<path d="M19.2349 33.2112L41.5392 25.5043V41L19.2349 33.2112Z" fill="#459B8E"/>
<path d="M21.401 47.709V48.231H19.655V54H19.025V48.231H17.27V47.709H21.401ZM23.0258 49.959C23.1638 49.653 23.3738 49.416 23.6558 49.248C23.9438 49.08 24.2948 48.996 24.7088 48.996V49.653H24.5378C24.0818 49.653 23.7158 49.776 23.4398 50.022C23.1638 50.268 23.0258 50.679 23.0258 51.255V54H22.3958V49.086H23.0258V49.959ZM25.3685 51.534C25.3685 51.03 25.4675 50.589 25.6655 50.211C25.8695 49.827 26.1485 49.533 26.5025 49.329C26.8625 49.119 27.2675 49.014 27.7175 49.014C28.1855 49.014 28.5875 49.122 28.9235 49.338C29.2655 49.554 29.5115 49.83 29.6615 50.166V49.086H30.2915V54H29.6615V52.911C29.5055 53.247 29.2565 53.526 28.9145 53.748C28.5785 53.964 28.1765 54.072 27.7085 54.072C27.2645 54.072 26.8625 53.967 26.5025 53.757C26.1485 53.547 25.8695 53.25 25.6655 52.866C25.4675 52.482 25.3685 52.038 25.3685 51.534ZM29.6615 51.543C29.6615 51.147 29.5805 50.799 29.4185 50.499C29.2565 50.199 29.0345 49.968 28.7525 49.806C28.4765 49.644 28.1705 49.563 27.8345 49.563C27.4865 49.563 27.1745 49.641 26.8985 49.797C26.6225 49.953 26.4035 50.181 26.2415 50.481C26.0855 50.775 26.0075 51.126 26.0075 51.534C26.0075 51.936 26.0855 52.29 26.2415 52.596C26.4035 52.896 26.6225 53.127 26.8985 53.289C27.1745 53.445 27.4865 53.523 27.8345 53.523C28.1705 53.523 28.4765 53.442 28.7525 53.28C29.0345 53.118 29.2565 52.887 29.4185 52.587C29.5805 52.287 29.6615 51.939 29.6615 51.543ZM34.0338 48.996C34.6218 48.996 35.1018 49.179 35.4738 49.545C35.8458 49.905 36.0318 50.43 36.0318 51.12V54H35.4108V51.192C35.4108 50.658 35.2758 50.25 35.0058 49.968C34.7418 49.686 34.3788 49.545 33.9168 49.545C33.4428 49.545 33.0648 49.695 32.7828 49.995C32.5008 50.295 32.3598 50.736 32.3598 51.318V54H31.7298V49.086H32.3598V49.923C32.5158 49.623 32.7408 49.395 33.0348 49.239C33.3288 49.077 33.6618 48.996 34.0338 48.996ZM39.1171 54.072C38.5531 54.072 38.0911 53.943 37.7311 53.685C37.3771 53.421 37.1791 53.064 37.1371 52.614H37.7851C37.8151 52.89 37.9441 53.115 38.1721 53.289C38.4061 53.457 38.7181 53.541 39.1081 53.541C39.4501 53.541 39.7171 53.46 39.9091 53.298C40.1071 53.136 40.2061 52.935 40.2061 52.695C40.2061 52.527 40.1521 52.389 40.0441 52.281C39.9361 52.173 39.7981 52.089 39.6301 52.029C39.4681 51.963 39.2461 51.894 38.9641 51.822C38.5981 51.726 38.3011 51.63 38.0731 51.534C37.8451 51.438 37.6501 51.297 37.4881 51.111C37.3321 50.919 37.2541 50.664 37.2541 50.346C37.2541 50.106 37.3261 49.884 37.4701 49.68C37.6141 49.476 37.8181 49.314 38.0821 49.194C38.3461 49.074 38.6461 49.014 38.9821 49.014C39.5101 49.014 39.9361 49.149 40.2601 49.419C40.5841 49.683 40.7581 50.049 40.7821 50.517H40.1521C40.1341 50.229 40.0201 49.998 39.8101 49.824C39.6061 49.644 39.3241 49.554 38.9641 49.554C38.6461 49.554 38.3881 49.629 38.1901 49.779C37.9921 49.929 37.8931 50.115 37.8931 50.337C37.8931 50.529 37.9501 50.688 38.0641 50.814C38.1841 50.934 38.3311 51.03 38.5051 51.102C38.6791 51.168 38.9131 51.243 39.2071 51.327C39.5611 51.423 39.8431 51.516 40.0531 51.606C40.2631 51.696 40.4431 51.828 40.5931 52.002C40.7431 52.176 40.8211 52.407 40.8271 52.695C40.8271 52.959 40.7551 53.196 40.6111 53.406C40.4671 53.61 40.2661 53.772 40.0081 53.892C39.7501 54.012 39.4531 54.072 39.1171 54.072ZM42.643 47.709V54H42.013V47.709H42.643ZM47.7506 47.709V48.231H46.0046V54H45.3746V48.231H43.6196V47.709H47.7506Z" fill="#459B8E"/>
</svg>
